<svg xmlns="http://www.w3.org/2000/svg" viewBox="0 0 256 256" role="img" aria-label="YHY Yanghuiyang Maritime Services logo">
  <defs>
    <linearGradient id="yhy-brand-gradient" x1="42" x2="214" y1="32" y2="224" gradientUnits="userSpaceOnUse">
      <stop stop-color="#24b6c8"/>
      <stop offset="0.55" stop-color="#1c4f8f"/>
      <stop offset="1" stop-color="#c99a32"/>
    </linearGradient>
  </defs>
  <rect width="256" height="256" fill="#071426"/>
  <path d="M32 42h192v133.3c0 26.2-15.2 42.7-44 42.7H32V42Z" fill="#0b1f36"/>
  <path d="M40 50h176v119.5c0 21.9-11.5 35.2-35.2 40.5H40V50Z" fill="url(#yhy-brand-gradient)" opacity="0.2"/>
  <text x="128" y="139" text-anchor="middle" font-family="Arial Black, Arial, sans-serif" font-size="76" font-weight="900" fill="#f8fafc">YHY</text>
  <path d="M48 170.7c24-14.4 48-14.1 72 .5 21.3 13.1 43.2 13.1 66.7-.5" fill="none" stroke="#26c6da" stroke-width="10.7" stroke-linecap="square"/>
  <path d="M48 200h130.7c17.6 0 28.8-7.5 34.7-21.3" fill="none" stroke="#d8a63a" stroke-width="8" stroke-linecap="square"/>
  <path d="M32 42h192M32 42v176M58.7 42V26M186.7 42V26M224 84h16M224 153.3h16" stroke="#5bb8c8" stroke-width="5.3" opacity="0.65"/>
</svg>
